# Blender v2.80 (sub 75) OBJ File: ''
# www.blender.org
mtllib colon.mtl
o Text.010
v -0.000500 0.000000 -0.458000
v -0.008613 0.000000 -0.457450
v -0.016403 0.000000 -0.455847
v -0.023797 0.000000 -0.453266
v -0.030722 0.000000 -0.449778
v -0.037106 0.000000 -0.445457
v -0.042875 0.000000 -0.440375
v -0.047957 0.000000 -0.434606
v -0.052278 0.000000 -0.428222
v -0.055766 0.000000 -0.421297
v -0.058347 0.000000 -0.413903
v -0.059950 0.000000 -0.406113
v -0.060500 0.000000 -0.398000
v -0.059950 0.000000 -0.389887
v -0.058347 0.000000 -0.382097
v -0.055766 0.000000 -0.374703
v -0.052278 0.000000 -0.367778
v -0.047957 0.000000 -0.361394
v -0.042875 0.000000 -0.355625
v -0.037106 0.000000 -0.350543
v -0.030722 0.000000 -0.346222
v -0.023797 0.000000 -0.342734
v -0.016403 0.000000 -0.340153
v -0.008613 0.000000 -0.338550
v -0.000500 0.000000 -0.338000
v 0.007613 0.000000 -0.338550
v 0.015403 0.000000 -0.340153
v 0.022797 0.000000 -0.342734
v 0.029722 0.000000 -0.346222
v 0.036106 0.000000 -0.350543
v 0.041875 0.000000 -0.355625
v 0.046957 0.000000 -0.361394
v 0.051278 0.000000 -0.367778
v 0.054766 0.000000 -0.374703
v 0.057347 0.000000 -0.382097
v 0.058950 0.000000 -0.389887
v 0.059500 0.000000 -0.398000
v 0.058950 0.000000 -0.406113
v 0.057347 0.000000 -0.413903
v 0.054766 0.000000 -0.421297
v 0.051278 0.000000 -0.428222
v 0.046957 0.000000 -0.434606
v 0.041875 0.000000 -0.440375
v 0.036106 0.000000 -0.445457
v 0.029722 0.000000 -0.449778
v 0.022797 0.000000 -0.453266
v 0.015403 0.000000 -0.455847
v 0.007613 0.000000 -0.457450
v -0.000500 0.000000 -0.111000
v -0.008613 0.000000 -0.110450
v -0.016403 0.000000 -0.108847
v -0.023797 0.000000 -0.106266
v -0.030722 0.000000 -0.102778
v -0.037106 0.000000 -0.098457
v -0.042875 0.000000 -0.093375
v -0.047957 0.000000 -0.087606
v -0.052278 0.000000 -0.081222
v -0.055766 0.000000 -0.074297
v -0.058347 0.000000 -0.066903
v -0.059950 0.000000 -0.059113
v -0.060500 0.000000 -0.051000
v -0.059950 0.000000 -0.042887
v -0.058347 0.000000 -0.035097
v -0.055766 0.000000 -0.027703
v -0.052278 0.000000 -0.020778
v -0.047957 0.000000 -0.014394
v -0.042875 0.000000 -0.008625
v -0.037106 0.000000 -0.003543
v -0.030722 0.000000 0.000778
v -0.023797 0.000000 0.004266
v -0.016403 0.000000 0.006847
v -0.008613 0.000000 0.008450
v -0.000500 0.000000 0.009000
v 0.007613 0.000000 0.008450
v 0.015403 0.000000 0.006847
v 0.022797 0.000000 0.004266
v 0.029722 0.000000 0.000778
v 0.036106 0.000000 -0.003543
v 0.041875 0.000000 -0.008625
v 0.046957 0.000000 -0.014394
v 0.051278 0.000000 -0.020778
v 0.054766 0.000000 -0.027703
v 0.057347 0.000000 -0.035097
v 0.058950 0.000000 -0.042887
v 0.059500 0.000000 -0.051000
v 0.058950 0.000000 -0.059113
v 0.057347 0.000000 -0.066903
v 0.054766 0.000000 -0.074297
v 0.051278 0.000000 -0.081222
v 0.046957 0.000000 -0.087606
v 0.041875 0.000000 -0.093375
v 0.036106 0.000000 -0.098457
v 0.029722 0.000000 -0.102778
v 0.022797 0.000000 -0.106266
v 0.015403 0.000000 -0.108847
v 0.007613 0.000000 -0.110450
v -0.000500 -0.089997 -0.458000
v -0.008613 -0.089997 -0.457450
v -0.016403 -0.090000 -0.455847
v -0.023797 -0.089997 -0.453266
v -0.030722 -0.090000 -0.449778
v -0.037106 -0.090000 -0.445457
v -0.042875 -0.090000 -0.440375
v -0.047957 -0.090000 -0.434606
v -0.052278 -0.089997 -0.428222
v -0.055766 -0.090000 -0.421297
v -0.058347 -0.090000 -0.413903
v -0.059950 -0.089997 -0.406113
v -0.060500 -0.090000 -0.398000
v -0.059950 -0.089997 -0.389887
v -0.058347 -0.090000 -0.382097
v -0.055766 -0.090000 -0.374703
v -0.052278 -0.090000 -0.367778
v -0.047957 -0.090000 -0.361394
v -0.042875 -0.090000 -0.355625
v -0.037106 -0.090000 -0.350543
v -0.030722 -0.089997 -0.346222
v -0.023797 -0.090000 -0.342734
v -0.016403 -0.090000 -0.340153
v -0.008613 -0.090000 -0.338550
v -0.000500 -0.090000 -0.338000
v 0.007613 -0.090000 -0.338550
v 0.015403 -0.089997 -0.340153
v 0.022797 -0.089997 -0.342734
v 0.029722 -0.090000 -0.346222
v 0.036106 -0.090000 -0.350543
v 0.041875 -0.090000 -0.355625
v 0.046957 -0.090000 -0.361394
v 0.051278 -0.090000 -0.367778
v 0.054766 -0.090000 -0.374703
v 0.057347 -0.089997 -0.382097
v 0.058950 -0.090000 -0.389887
v 0.059500 -0.090000 -0.398000
v 0.058950 -0.090000 -0.406113
v 0.057347 -0.090000 -0.413903
v 0.054766 -0.090000 -0.421297
v 0.051278 -0.089997 -0.428222
v 0.046957 -0.090000 -0.434606
v 0.041875 -0.089997 -0.440375
v 0.036106 -0.090000 -0.445457
v 0.029722 -0.090000 -0.449778
v 0.022797 -0.090000 -0.453266
v 0.015403 -0.090000 -0.455847
v 0.007613 -0.090000 -0.457450
v -0.000500 -0.090000 -0.111000
v -0.008613 -0.090000 -0.110450
v -0.016403 -0.090000 -0.108847
v -0.023797 -0.090000 -0.106266
v -0.030722 -0.090000 -0.102778
v -0.037106 -0.090000 -0.098457
v -0.042875 -0.090000 -0.093375
v -0.047957 -0.090000 -0.087606
v -0.052278 -0.090000 -0.081222
v -0.055766 -0.090000 -0.074297
v -0.058347 -0.090000 -0.066903
v -0.059950 -0.090000 -0.059113
v -0.060500 -0.090000 -0.051000
v -0.059950 -0.090000 -0.042887
v -0.058347 -0.090000 -0.035097
v -0.055766 -0.090000 -0.027703
v -0.052278 -0.090000 -0.020778
v -0.047957 -0.090000 -0.014394
v -0.042875 -0.090000 -0.008625
v -0.037106 -0.089997 -0.003543
v -0.030722 -0.089997 0.000778
v -0.023797 -0.089997 0.004266
v -0.016403 -0.090000 0.006847
v -0.008613 -0.090000 0.008450
v -0.000500 -0.090000 0.009000
v 0.007613 -0.090000 0.008450
v 0.015403 -0.090000 0.006847
v 0.022797 -0.090000 0.004266
v 0.029722 -0.090000 0.000778
v 0.036106 -0.089997 -0.003543
v 0.041875 -0.090000 -0.008625
v 0.046957 -0.090000 -0.014394
v 0.051278 -0.090000 -0.020778
v 0.054766 -0.090000 -0.027703
v 0.057347 -0.090000 -0.035097
v 0.058950 -0.090000 -0.042887
v 0.059500 -0.090000 -0.051000
v 0.058950 -0.090000 -0.059113
v 0.057347 -0.089997 -0.066903
v 0.054766 -0.090000 -0.074297
v 0.051278 -0.090000 -0.081222
v 0.046957 -0.090000 -0.087606
v 0.041875 -0.090000 -0.093375
v 0.036106 -0.089997 -0.098457
v 0.029722 -0.090000 -0.102778
v 0.022797 -0.090000 -0.106266
v 0.015403 -0.090000 -0.108847
v 0.007613 -0.090000 -0.110450
vn 0.0000 1.0000 0.0000
vn 0.0000 -1.0000 0.0000
vn 0.0000 -1.0000 0.0006
vn 0.0000 -1.0000 -0.0005
vn 0.0000 -1.0000 0.0004
vn 0.0000 -1.0000 -0.0004
vn -0.0000 -1.0000 0.0005
vn -0.0000 -1.0000 -0.0007
vn -0.0000 -1.0000 0.0001
vn -0.0001 -1.0000 -0.0001
vn -0.0001 -1.0000 -0.0009
vn -0.0002 -1.0000 -0.0025
vn -0.0002 -1.0000 0.0008
vn 0.0000 -1.0000 -0.0017
vn -0.0001 -1.0000 0.0009
vn -0.0001 -1.0000 0.0001
vn -0.0000 -1.0000 -0.0008
vn -0.0000 -1.0000 0.0003
vn 0.0000 -1.0000 -0.0003
vn -0.0000 -1.0000 0.0007
vn 0.0001 -1.0000 -0.0009
vn 0.0001 -1.0000 0.0002
vn 0.0001 -1.0000 -0.0002
vn 0.0001 -1.0000 -0.0013
vn -0.0677 0.0000 -0.9977
vn 0.0677 0.0000 -0.9977
vn -0.2015 0.0000 -0.9795
vn 0.2015 0.0000 -0.9795
vn -0.3296 0.0000 -0.9441
vn 0.3296 0.0000 -0.9441
vn -0.4498 0.0000 -0.8931
vn 0.4498 0.0000 -0.8931
vn -0.5606 0.0000 -0.8281
vn 0.5606 0.0000 -0.8281
vn -0.6610 0.0000 -0.7504
vn 0.6610 0.0000 -0.7504
vn -0.7504 0.0000 -0.6610
vn 0.7504 0.0000 -0.6610
vn -0.8281 0.0000 -0.5606
vn 0.8281 0.0000 -0.5606
vn -0.8931 0.0000 -0.4498
vn 0.8931 0.0000 -0.4498
vn -0.9441 0.0000 -0.3296
vn 0.9441 0.0000 -0.3296
vn -0.9795 0.0000 -0.2015
vn 0.9795 0.0000 -0.2015
vn 0.9977 0.0000 -0.0677
vn -0.9977 0.0000 -0.0677
vn -0.9977 0.0000 0.0677
vn 0.9977 0.0000 0.0677
vn -0.9795 0.0000 0.2015
vn 0.9795 0.0000 0.2015
vn -0.9441 0.0000 0.3296
vn 0.9441 0.0000 0.3296
vn -0.8931 0.0000 0.4498
vn 0.8931 0.0000 0.4498
vn -0.8281 0.0000 0.5606
vn 0.8281 0.0000 0.5606
vn -0.7504 0.0000 0.6610
vn 0.7504 0.0000 0.6610
vn -0.6610 0.0000 0.7504
vn 0.6610 0.0000 0.7504
vn -0.5606 0.0000 0.8281
vn 0.5606 0.0000 0.8281
vn -0.4498 0.0000 0.8931
vn 0.4498 0.0000 0.8931
vn -0.3296 0.0000 0.9441
vn 0.3296 0.0000 0.9441
vn -0.2015 0.0000 0.9795
vn 0.2015 0.0000 0.9795
vn -0.0677 0.0000 0.9977
vn 0.0677 0.0000 0.9977
usemtl None
s off
f 50//1 96//1 49//1
f 51//1 96//1 50//1
f 51//1 95//1 96//1
f 52//1 95//1 51//1
f 52//1 94//1 95//1
f 53//1 94//1 52//1
f 53//1 93//1 94//1
f 54//1 93//1 53//1
f 54//1 92//1 93//1
f 55//1 92//1 54//1
f 55//1 91//1 92//1
f 56//1 91//1 55//1
f 56//1 90//1 91//1
f 57//1 90//1 56//1
f 57//1 89//1 90//1
f 58//1 89//1 57//1
f 58//1 88//1 89//1
f 59//1 88//1 58//1
f 59//1 87//1 88//1
f 60//1 87//1 59//1
f 60//1 86//1 87//1
f 60//1 85//1 86//1
f 61//1 85//1 60//1
f 62//1 85//1 61//1
f 62//1 84//1 85//1
f 63//1 84//1 62//1
f 63//1 83//1 84//1
f 64//1 83//1 63//1
f 64//1 82//1 83//1
f 65//1 82//1 64//1
f 65//1 81//1 82//1
f 66//1 81//1 65//1
f 66//1 80//1 81//1
f 67//1 80//1 66//1
f 67//1 79//1 80//1
f 68//1 79//1 67//1
f 68//1 78//1 79//1
f 69//1 78//1 68//1
f 69//1 77//1 78//1
f 70//1 77//1 69//1
f 70//1 76//1 77//1
f 71//1 76//1 70//1
f 71//1 75//1 76//1
f 72//1 75//1 71//1
f 72//1 74//1 75//1
f 73//1 74//1 72//1
f 2//1 48//1 1//1
f 2//1 47//1 48//1
f 3//1 47//1 2//1
f 3//1 46//1 47//1
f 4//1 46//1 3//1
f 4//1 45//1 46//1
f 5//1 45//1 4//1
f 5//1 44//1 45//1
f 6//1 44//1 5//1
f 6//1 43//1 44//1
f 7//1 43//1 6//1
f 7//1 42//1 43//1
f 8//1 42//1 7//1
f 8//1 41//1 42//1
f 9//1 41//1 8//1
f 9//1 40//1 41//1
f 10//1 40//1 9//1
f 10//1 39//1 40//1
f 11//1 39//1 10//1
f 11//1 38//1 39//1
f 12//1 38//1 11//1
f 12//1 37//1 38//1
f 13//1 37//1 12//1
f 14//1 37//1 13//1
f 14//1 36//1 37//1
f 14//1 35//1 36//1
f 15//1 35//1 14//1
f 15//1 34//1 35//1
f 16//1 34//1 15//1
f 16//1 33//1 34//1
f 17//1 33//1 16//1
f 17//1 32//1 33//1
f 18//1 32//1 17//1
f 18//1 31//1 32//1
f 19//1 31//1 18//1
f 19//1 30//1 31//1
f 20//1 30//1 19//1
f 20//1 29//1 30//1
f 21//1 29//1 20//1
f 21//1 28//1 29//1
f 22//1 28//1 21//1
f 22//1 27//1 28//1
f 23//1 27//1 22//1
f 23//1 26//1 27//1
f 24//1 26//1 23//1
f 24//1 25//1 26//1
f 146//2 145//2 192//2
f 147//2 146//2 192//2
f 147//2 192//2 191//2
f 148//2 147//2 191//2
f 148//2 191//2 190//2
f 149//2 148//2 190//2
f 149//2 190//2 189//2
f 150//2 149//2 189//2
f 150//3 189//3 188//3
f 151//2 150//2 188//2
f 151//4 188//4 187//4
f 152//2 151//2 187//2
f 152//2 187//2 186//2
f 153//2 152//2 186//2
f 153//2 186//2 185//2
f 154//2 153//2 185//2
f 154//2 185//2 184//2
f 155//2 154//2 184//2
f 155//5 184//5 183//5
f 156//2 155//2 183//2
f 156//6 183//6 182//6
f 156//2 182//2 181//2
f 157//2 156//2 181//2
f 158//2 157//2 181//2
f 158//2 181//2 180//2
f 159//2 158//2 180//2
f 159//2 180//2 179//2
f 160//2 159//2 179//2
f 160//2 179//2 178//2
f 161//2 160//2 178//2
f 161//2 178//2 177//2
f 162//2 161//2 177//2
f 162//2 177//2 176//2
f 163//2 162//2 176//2
f 163//2 176//2 175//2
f 164//7 163//7 175//7
f 164//7 175//7 174//7
f 165//2 164//2 174//2
f 165//8 174//8 173//8
f 166//9 165//9 173//9
f 166//10 173//10 172//10
f 167//11 166//11 172//11
f 167//2 172//2 171//2
f 168//2 167//2 171//2
f 168//2 171//2 170//2
f 169//2 168//2 170//2
f 98//12 97//12 144//12
f 98//13 144//13 143//13
f 99//14 98//14 143//14
f 99//2 143//2 142//2
f 100//15 99//15 142//15
f 100//16 142//16 141//16
f 101//17 100//17 141//17
f 101//2 141//2 140//2
f 102//2 101//2 140//2
f 102//7 140//7 139//7
f 103//2 102//2 139//2
f 103//4 139//4 138//4
f 104//2 103//2 138//2
f 104//5 138//5 137//5
f 105//5 104//5 137//5
f 105//6 137//6 136//6
f 106//6 105//6 136//6
f 106//2 136//2 135//2
f 107//2 106//2 135//2
f 107//2 135//2 134//2
f 108//18 107//18 134//18
f 108//2 134//2 133//2
f 109//19 108//19 133//19
f 110//18 109//18 133//18
f 110//2 133//2 132//2
f 110//18 132//18 131//18
f 111//6 110//6 131//6
f 111//6 131//6 130//6
f 112//2 111//2 130//2
f 112//2 130//2 129//2
f 113//2 112//2 129//2
f 113//2 129//2 128//2
f 114//2 113//2 128//2
f 114//2 128//2 127//2
f 115//2 114//2 127//2
f 115//2 127//2 126//2
f 116//2 115//2 126//2
f 116//2 126//2 125//2
f 117//20 116//20 125//20
f 117//20 125//20 124//20
f 118//21 117//21 124//21
f 118//22 124//22 123//22
f 119//23 118//23 123//23
f 119//24 123//24 122//24
f 120//2 119//2 122//2
f 120//2 122//2 121//2
f 50//25 49//25 145//25 146//25
f 49//26 96//26 192//26 145//26
f 51//27 50//27 146//27 147//27
f 96//28 95//28 191//28 192//28
f 52//29 51//29 147//29 148//29
f 95//30 94//30 190//30 191//30
f 53//31 52//31 148//31 149//31
f 94//32 93//32 189//32 190//32
f 54//33 53//33 149//33 150//33
f 93//34 92//34 188//34 189//34
f 55//35 54//35 150//35 151//35
f 92//36 91//36 187//36 188//36
f 56//37 55//37 151//37 152//37
f 91//38 90//38 186//38 187//38
f 57//39 56//39 152//39 153//39
f 90//40 89//40 185//40 186//40
f 58//41 57//41 153//41 154//41
f 89//42 88//42 184//42 185//42
f 59//43 58//43 154//43 155//43
f 88//44 87//44 183//44 184//44
f 60//45 59//45 155//45 156//45
f 87//46 86//46 182//46 183//46
f 86//47 85//47 181//47 182//47
f 61//48 60//48 156//48 157//48
f 62//49 61//49 157//49 158//49
f 85//50 84//50 180//50 181//50
f 63//51 62//51 158//51 159//51
f 84//52 83//52 179//52 180//52
f 64//53 63//53 159//53 160//53
f 83//54 82//54 178//54 179//54
f 65//55 64//55 160//55 161//55
f 82//56 81//56 177//56 178//56
f 66//57 65//57 161//57 162//57
f 81//58 80//58 176//58 177//58
f 67//59 66//59 162//59 163//59
f 80//60 79//60 175//60 176//60
f 68//61 67//61 163//61 164//61
f 79//62 78//62 174//62 175//62
f 69//63 68//63 164//63 165//63
f 78//64 77//64 173//64 174//64
f 70//65 69//65 165//65 166//65
f 77//66 76//66 172//66 173//66
f 71//67 70//67 166//67 167//67
f 76//68 75//68 171//68 172//68
f 72//69 71//69 167//69 168//69
f 75//70 74//70 170//70 171//70
f 73//71 72//71 168//71 169//71
f 74//72 73//72 169//72 170//72
f 2//25 1//25 97//25 98//25
f 1//26 48//26 144//26 97//26
f 48//28 47//28 143//28 144//28
f 3//27 2//27 98//27 99//27
f 47//30 46//30 142//30 143//30
f 4//29 3//29 99//29 100//29
f 46//32 45//32 141//32 142//32
f 5//31 4//31 100//31 101//31
f 45//34 44//34 140//34 141//34
f 6//33 5//33 101//33 102//33
f 44//36 43//36 139//36 140//36
f 7//35 6//35 102//35 103//35
f 43//38 42//38 138//38 139//38
f 8//37 7//37 103//37 104//37
f 42//40 41//40 137//40 138//40
f 9//39 8//39 104//39 105//39
f 41//42 40//42 136//42 137//42
f 10//41 9//41 105//41 106//41
f 40//44 39//44 135//44 136//44
f 11//43 10//43 106//43 107//43
f 39//46 38//46 134//46 135//46
f 12//45 11//45 107//45 108//45
f 38//47 37//47 133//47 134//47
f 13//48 12//48 108//48 109//48
f 14//49 13//49 109//49 110//49
f 37//50 36//50 132//50 133//50
f 36//52 35//52 131//52 132//52
f 15//51 14//51 110//51 111//51
f 35//54 34//54 130//54 131//54
f 16//53 15//53 111//53 112//53
f 34//56 33//56 129//56 130//56
f 17//55 16//55 112//55 113//55
f 33//58 32//58 128//58 129//58
f 18//57 17//57 113//57 114//57
f 32//60 31//60 127//60 128//60
f 19//59 18//59 114//59 115//59
f 31//62 30//62 126//62 127//62
f 20//61 19//61 115//61 116//61
f 30//64 29//64 125//64 126//64
f 21//63 20//63 116//63 117//63
f 29//66 28//66 124//66 125//66
f 22//65 21//65 117//65 118//65
f 28//68 27//68 123//68 124//68
f 23//67 22//67 118//67 119//67
f 27//70 26//70 122//70 123//70
f 24//69 23//69 119//69 120//69
f 25//71 24//71 120//71 121//71
f 26//72 25//72 121//72 122//72
