# Blender v2.80 (sub 75) OBJ File: ''
# www.blender.org
mtllib highlight.mtl
o Plane_Plane.001
v -1.000000 0.000000 1.000000
v 1.000000 0.000000 1.000000
v -1.000000 0.000000 -1.000000
v 1.000000 0.000000 -1.000000
v -0.928735 0.000000 -0.928735
v -0.928735 0.000000 0.928735
v 0.928735 0.000000 0.928735
v 0.928735 0.000000 -0.928735
v -1.000000 0.000000 1.000000
v 1.000000 0.000000 1.000000
v -1.000000 0.000000 -1.000000
v 1.000000 0.000000 -1.000000
v -0.928735 0.000000 -0.928735
v -0.928735 0.000000 0.928735
v 0.928735 0.000000 0.928735
v 0.928735 0.000000 -0.928735
v -1.000000 0.060000 1.000000
v 1.000000 0.060000 1.000000
v -1.000000 0.060000 -1.000000
v 1.000000 0.060000 -1.000000
v -0.928735 0.060000 -0.928735
v -0.928735 0.060000 0.928735
v 0.928735 0.060000 0.928735
v 0.928735 0.060000 -0.928735
vt 0.035633 0.035633
vt 0.000000 0.000000
vt 0.000000 1.000000
vt 0.035633 0.964367
vt 0.964367 0.035633
vt 1.000000 0.000000
vt 0.964367 0.964367
vt 1.000000 1.000000
vt 0.035633 0.964367
vt 0.964367 0.964367
vt 0.964367 0.964367
vt 0.035633 0.964367
vt 0.000000 0.000000
vt 1.000000 0.000000
vt 1.000000 0.000000
vt 0.000000 0.000000
vt 1.000000 1.000000
vt 0.000000 1.000000
vt 0.000000 1.000000
vt 1.000000 1.000000
vt 0.035633 0.035633
vt 0.035633 0.035633
vt 0.964367 0.035633
vt 0.964367 0.035633
vn 0.0000 -1.0000 0.0000
vn 0.0000 0.0000 1.0000
vn 0.0000 0.0000 -1.0000
vn 1.0000 0.0000 0.0000
vn 0.0000 1.0000 0.0000
vn -1.0000 0.0000 0.0000
usemtl Material.001
s off
f 6/1/1 1/2/1 3/3/1 5/4/1
f 7/5/1 2/6/1 1/2/1 6/1/1
f 8/7/1 4/8/1 2/6/1 7/5/1
f 5/4/1 3/3/1 4/8/1 8/7/1
f 13/9/2 16/10/2 24/11/2 21/12/2
f 9/13/2 10/14/2 18/15/2 17/16/2
f 12/17/3 11/18/3 19/19/3 20/20/3
f 14/21/4 13/9/4 21/12/4 22/22/4
f 7/5/2 6/1/2 14/21/2 15/23/2
f 2/6/2 4/8/2 12/17/2 10/14/2
f 3/3/2 1/2/2 9/13/2 11/18/2
f 8/7/2 7/5/2 15/23/2 16/10/2
f 6/1/2 5/4/2 13/9/2 14/21/2
f 4/8/2 3/3/2 11/18/2 12/17/2
f 1/2/2 2/6/2 10/14/2 9/13/2
f 5/4/2 8/7/2 16/10/2 13/9/2
f 22/22/5 21/12/5 19/19/5 17/16/5
f 23/24/5 22/22/5 17/16/5 18/15/5
f 24/11/5 23/24/5 18/15/5 20/20/5
f 21/12/5 24/11/5 20/20/5 19/19/5
f 15/23/3 14/21/3 22/22/3 23/24/3
f 10/14/4 12/17/4 20/20/4 18/15/4
f 11/18/6 9/13/6 17/16/6 19/19/6
f 16/10/6 15/23/6 23/24/6 24/11/6
