# Blender v2.80 (sub 75) OBJ File: ''
# www.blender.org
mtllib nine.mtl
o Text.009
v -0.063000 0.000000 0.009000
v -0.023998 0.000000 -0.017310
v 0.012852 0.000000 -0.046977
v 0.047313 0.000000 -0.079609
v 0.079148 0.000000 -0.114815
v 0.108123 0.000000 -0.152201
v 0.134000 0.000000 -0.191375
v 0.156544 0.000000 -0.231945
v 0.175519 0.000000 -0.273519
v 0.190688 0.000000 -0.315703
v 0.201815 0.000000 -0.358107
v 0.208664 0.000000 -0.400336
v 0.211000 0.000000 -0.442000
v 0.209137 0.000000 -0.476939
v 0.203676 0.000000 -0.510097
v 0.194813 0.000000 -0.541234
v 0.182741 0.000000 -0.570111
v 0.167655 0.000000 -0.596488
v 0.149750 0.000000 -0.620125
v 0.129220 0.000000 -0.640783
v 0.106259 0.000000 -0.658222
v 0.081063 0.000000 -0.672203
v 0.053824 0.000000 -0.682486
v 0.024738 0.000000 -0.688832
v -0.006000 0.000000 -0.691000
v -0.036561 0.000000 -0.688954
v -0.065157 0.000000 -0.683051
v -0.091656 0.000000 -0.673641
v -0.115926 0.000000 -0.661074
v -0.137834 0.000000 -0.645702
v -0.157250 0.000000 -0.627875
v -0.174041 0.000000 -0.607944
v -0.188074 0.000000 -0.586259
v -0.199219 0.000000 -0.563172
v -0.207343 0.000000 -0.539032
v -0.212314 0.000000 -0.514192
v -0.214000 0.000000 -0.489000
v -0.212265 0.000000 -0.461767
v -0.207204 0.000000 -0.435718
v -0.199031 0.000000 -0.411078
v -0.187963 0.000000 -0.388074
v -0.174214 0.000000 -0.366931
v -0.158000 0.000000 -0.347875
v -0.139536 0.000000 -0.331131
v -0.119037 0.000000 -0.316926
v -0.096719 0.000000 -0.305484
v -0.072796 0.000000 -0.297032
v -0.047485 0.000000 -0.291796
v -0.021000 0.000000 -0.290000
v -0.011925 0.000000 -0.290227
v -0.002731 0.000000 -0.290898
v 0.006531 0.000000 -0.292000
v 0.015815 0.000000 -0.293519
v 0.025071 0.000000 -0.295440
v 0.034250 0.000000 -0.297750
v 0.043304 0.000000 -0.300435
v 0.052185 0.000000 -0.303482
v 0.060844 0.000000 -0.306875
v 0.069231 0.000000 -0.310602
v 0.077300 0.000000 -0.314648
v 0.085000 0.000000 -0.319000
v 0.079112 0.000000 -0.297329
v 0.070981 0.000000 -0.275384
v 0.060656 0.000000 -0.253266
v 0.048185 0.000000 -0.231074
v 0.033617 0.000000 -0.208910
v 0.017000 0.000000 -0.186875
v -0.001617 0.000000 -0.165069
v -0.022185 0.000000 -0.143593
v -0.044656 0.000000 -0.122547
v -0.068981 0.000000 -0.102032
v -0.095112 0.000000 -0.082150
v -0.123000 0.000000 -0.063000
v -0.116000 0.000000 -0.490000
v -0.115038 0.000000 -0.505359
v -0.112218 0.000000 -0.519875
v -0.107641 0.000000 -0.533453
v -0.101407 0.000000 -0.546000
v -0.093619 0.000000 -0.557422
v -0.084375 0.000000 -0.567625
v -0.073777 0.000000 -0.576516
v -0.061926 0.000000 -0.584000
v -0.048922 0.000000 -0.589984
v -0.034866 0.000000 -0.594375
v -0.019858 0.000000 -0.597078
v -0.004000 0.000000 -0.598000
v 0.011477 0.000000 -0.596840
v 0.026319 0.000000 -0.593472
v 0.040391 0.000000 -0.588063
v 0.053556 0.000000 -0.580778
v 0.065679 0.000000 -0.571785
v 0.076625 0.000000 -0.561250
v 0.086259 0.000000 -0.549340
v 0.094444 0.000000 -0.536222
v 0.101047 0.000000 -0.522062
v 0.105931 0.000000 -0.507028
v 0.108960 0.000000 -0.491285
v 0.110000 0.000000 -0.475000
v 0.109997 0.000000 -0.470805
v 0.109977 0.000000 -0.466690
v 0.109922 0.000000 -0.462609
v 0.109815 0.000000 -0.458519
v 0.109638 0.000000 -0.454372
v 0.109375 0.000000 -0.450125
v 0.109008 0.000000 -0.445732
v 0.108519 0.000000 -0.441148
v 0.107891 0.000000 -0.436328
v 0.107106 0.000000 -0.431227
v 0.106149 0.000000 -0.425799
v 0.105000 0.000000 -0.420000
v 0.095715 0.000000 -0.413810
v 0.086389 0.000000 -0.408231
v 0.077063 0.000000 -0.403250
v 0.067778 0.000000 -0.398852
v 0.058576 0.000000 -0.395023
v 0.049500 0.000000 -0.391750
v 0.040590 0.000000 -0.389019
v 0.031889 0.000000 -0.386815
v 0.023438 0.000000 -0.385125
v 0.015278 0.000000 -0.383935
v 0.007451 0.000000 -0.383231
v 0.000000 0.000000 -0.383000
v -0.015727 0.000000 -0.383979
v -0.030815 0.000000 -0.386829
v -0.045125 0.000000 -0.391422
v -0.058519 0.000000 -0.397630
v -0.070856 0.000000 -0.405324
v -0.082000 0.000000 -0.414375
v -0.091810 0.000000 -0.424656
v -0.100148 0.000000 -0.436037
v -0.106875 0.000000 -0.448391
v -0.111852 0.000000 -0.461588
v -0.114940 0.000000 -0.475501
v -0.063000 -0.090000 0.009000
v -0.023998 -0.090000 -0.017310
v 0.012852 -0.090000 -0.046977
v 0.047313 -0.090000 -0.079609
v 0.079148 -0.090000 -0.114815
v 0.108123 -0.090000 -0.152201
v 0.134000 -0.090000 -0.191375
v 0.156544 -0.090000 -0.231945
v 0.175519 -0.090000 -0.273519
v 0.190688 -0.089997 -0.315703
v 0.201815 -0.090000 -0.358107
v 0.208664 -0.089997 -0.400336
v 0.211000 -0.090000 -0.442000
v 0.209137 -0.090000 -0.476939
v 0.203676 -0.090000 -0.510097
v 0.194813 -0.090000 -0.541234
v 0.182741 -0.090000 -0.570111
v 0.167655 -0.090000 -0.596488
v 0.149750 -0.090000 -0.620125
v 0.129220 -0.089997 -0.640783
v 0.106259 -0.090000 -0.658222
v 0.081063 -0.090000 -0.672203
v 0.053824 -0.089997 -0.682486
v 0.024738 -0.090000 -0.688832
v -0.006000 -0.090000 -0.691000
v -0.036561 -0.090000 -0.688954
v -0.065157 -0.090000 -0.683051
v -0.091656 -0.090000 -0.673641
v -0.115926 -0.090000 -0.661074
v -0.137834 -0.090000 -0.645702
v -0.157250 -0.090000 -0.627875
v -0.174041 -0.090000 -0.607944
v -0.188074 -0.090000 -0.586259
v -0.199219 -0.089997 -0.563172
v -0.207343 -0.090000 -0.539032
v -0.212314 -0.090000 -0.514192
v -0.214000 -0.090000 -0.489000
v -0.212265 -0.090000 -0.461767
v -0.207204 -0.090000 -0.435718
v -0.199031 -0.090000 -0.411078
v -0.187963 -0.090000 -0.388074
v -0.174214 -0.089997 -0.366931
v -0.158000 -0.090000 -0.347875
v -0.139536 -0.090000 -0.331131
v -0.119037 -0.090000 -0.316926
v -0.096719 -0.090000 -0.305484
v -0.072796 -0.090000 -0.297032
v -0.047485 -0.090000 -0.291796
v -0.021000 -0.090000 -0.290000
v -0.011925 -0.089997 -0.290227
v -0.002731 -0.090000 -0.290898
v 0.006531 -0.090000 -0.292000
v 0.015815 -0.089997 -0.293519
v 0.025071 -0.090000 -0.295440
v 0.034250 -0.090000 -0.297750
v 0.043304 -0.090000 -0.300435
v 0.052185 -0.090000 -0.303482
v 0.060844 -0.090000 -0.306875
v 0.069231 -0.090000 -0.310602
v 0.077300 -0.090000 -0.314648
v 0.085000 -0.090000 -0.319000
v 0.079112 -0.090000 -0.297329
v 0.070981 -0.090000 -0.275384
v 0.060656 -0.090000 -0.253266
v 0.048185 -0.090000 -0.231074
v 0.033617 -0.090000 -0.208910
v 0.017000 -0.090000 -0.186875
v -0.001617 -0.090000 -0.165069
v -0.022185 -0.090000 -0.143593
v -0.044656 -0.090000 -0.122547
v -0.068981 -0.090000 -0.102032
v -0.095112 -0.090000 -0.082150
v -0.123000 -0.090000 -0.063000
v -0.116000 -0.089997 -0.490000
v -0.115038 -0.089997 -0.505359
v -0.112218 -0.090000 -0.519875
v -0.107641 -0.090000 -0.533453
v -0.101407 -0.089997 -0.546000
v -0.093619 -0.090000 -0.557422
v -0.084375 -0.090000 -0.567625
v -0.073777 -0.090000 -0.576516
v -0.061926 -0.090000 -0.584000
v -0.048922 -0.090000 -0.589984
v -0.034866 -0.090000 -0.594375
v -0.019858 -0.090000 -0.597078
v -0.004000 -0.090000 -0.598000
v 0.011477 -0.090000 -0.596840
v 0.026319 -0.089997 -0.593472
v 0.040391 -0.090000 -0.588063
v 0.053556 -0.090000 -0.580778
v 0.065679 -0.090000 -0.571785
v 0.076625 -0.090000 -0.561250
v 0.086259 -0.089997 -0.549340
v 0.094444 -0.090000 -0.536222
v 0.101047 -0.090000 -0.522062
v 0.105931 -0.090000 -0.507028
v 0.108960 -0.090000 -0.491285
v 0.110000 -0.089997 -0.475000
v 0.109997 -0.090000 -0.470805
v 0.109977 -0.090000 -0.466690
v 0.109922 -0.090000 -0.462609
v 0.109815 -0.090000 -0.458519
v 0.109638 -0.090000 -0.454372
v 0.109375 -0.090000 -0.450125
v 0.109008 -0.090000 -0.445732
v 0.108519 -0.090000 -0.441148
v 0.107891 -0.090000 -0.436328
v 0.107106 -0.090000 -0.431227
v 0.106149 -0.090000 -0.425799
v 0.105000 -0.089997 -0.420000
v 0.095715 -0.090000 -0.413810
v 0.086389 -0.090000 -0.408231
v 0.077063 -0.090000 -0.403250
v 0.067778 -0.090000 -0.398852
v 0.058576 -0.089997 -0.395023
v 0.049500 -0.090000 -0.391750
v 0.040590 -0.090000 -0.389019
v 0.031889 -0.090000 -0.386815
v 0.023438 -0.090000 -0.385125
v 0.015278 -0.090000 -0.383935
v 0.007451 -0.090000 -0.383231
v 0.000000 -0.090000 -0.383000
v -0.015727 -0.090000 -0.383979
v -0.030815 -0.090000 -0.386829
v -0.045125 -0.090000 -0.391422
v -0.058519 -0.089997 -0.397630
v -0.070856 -0.090000 -0.405324
v -0.082000 -0.089997 -0.414375
v -0.091810 -0.090000 -0.424656
v -0.100148 -0.090000 -0.436037
v -0.106875 -0.090000 -0.448391
v -0.111852 -0.090000 -0.461588
v -0.114940 -0.090000 -0.475501
vn 0.0000 1.0000 0.0000
vn 0.0000 -1.0000 0.0000
vn 0.0000 -1.0000 0.0003
vn 0.0000 -1.0000 0.0001
vn 0.0000 -1.0000 -0.0003
vn 0.0000 -1.0000 -0.0001
vn -0.0000 -1.0000 0.0008
vn 0.0001 -1.0000 -0.0008
vn -0.0000 -1.0000 -0.0002
vn 0.0000 -1.0000 0.0002
vn 0.0002 -1.0000 -0.0007
vn -0.0001 -1.0000 0.0005
vn 0.0001 -1.0000 -0.0003
vn -0.0001 -1.0000 0.0004
vn -0.0000 -1.0000 -0.0004
vn 0.0001 -1.0000 -0.0005
vn 0.0001 -1.0000 -0.0011
vn 0.0001 -1.0000 0.0019
vn -0.0000 -1.0000 -0.0019
vn 0.0006 -0.9999 0.0125
vn -0.0668 0.0000 -0.9978
vn 0.0704 0.0000 -0.9975
vn -0.2022 0.0000 -0.9793
vn 0.2132 0.0000 -0.9770
vn -0.3346 0.0000 -0.9423
vn 0.3532 0.0000 -0.9356
vn -0.4598 0.0000 -0.8880
vn 0.4852 0.0000 -0.8744
vn -0.5744 0.0000 -0.8186
vn 0.6048 0.0000 -0.7963
vn -0.6763 0.0000 -0.7366
vn 0.7093 0.0000 -0.7049
vn -0.7648 0.0000 -0.6443
vn 0.7971 0.0000 -0.6038
vn -0.8395 0.0000 -0.5433
vn 0.0580 0.0000 0.9983
vn -0.0747 0.0000 0.9972
vn 0.1773 0.0000 0.9842
vn -0.2213 0.0000 0.9752
vn 0.8681 0.0000 -0.4965
vn 0.2982 0.0000 0.9545
vn -0.3588 0.0000 0.9334
vn 0.4180 0.0000 0.9084
vn -0.4842 0.0000 0.8750
vn -0.9006 0.0000 -0.4347
vn 0.5340 0.0000 0.8455
vn -0.5958 0.0000 0.8031
vn 0.6427 0.0000 0.7661
vn -0.6934 0.0000 0.7205
vn 0.9226 0.0000 -0.3857
vn 0.7411 0.0000 0.6714
vn -0.9478 0.0000 -0.3190
vn -0.7775 0.0000 0.6289
vn 0.8262 0.0000 0.5634
vn -0.8484 0.0000 0.5294
vn 0.8956 0.0000 0.4449
vn 0.9618 0.0000 -0.2738
vn -0.9806 0.0000 -0.1962
vn -0.9063 0.0000 0.4226
vn 0.9476 0.0000 0.3194
vn -0.9511 0.0000 0.3089
vn 0.9816 0.0000 0.1907
vn -0.9978 0.0000 -0.0668
vn 0.9867 0.0000 -0.1625
vn -0.9820 0.0000 0.1890
vn 0.9980 0.0000 0.0625
vn -0.9980 0.0000 0.0637
vn 0.9973 0.0000 -0.0729
vn -0.9980 0.0000 0.0636
vn 0.9986 0.0000 -0.0533
vn 0.9762 0.0000 -0.2167
vn -1.0000 0.0000 -0.0007
vn -1.0000 0.0000 -0.0049
vn -0.9999 0.0000 -0.0135
vn -0.9997 0.0000 -0.0262
vn -0.9816 0.0000 0.1907
vn 0.9357 0.0000 -0.3529
vn -0.9991 0.0000 -0.0425
vn -0.9981 0.0000 -0.0619
vn -0.9965 0.0000 -0.0834
vn 0.8782 0.0000 -0.4782
vn -0.9944 0.0000 -0.1061
vn 0.9984 0.0000 0.0560
vn -0.9916 0.0000 -0.1292
vn -0.9884 0.0000 -0.1519
vn 0.8067 0.0000 -0.5910
vn -0.9492 0.0000 0.3148
vn -0.9848 0.0000 -0.1738
vn -0.9809 0.0000 -0.1943
vn 0.7235 0.0000 -0.6904
vn -0.5547 0.0000 -0.8320
vn 0.6305 0.0000 -0.7762
vn -0.5133 0.0000 -0.8582
vn -0.9011 0.0000 0.4336
vn -0.4711 0.0000 -0.8821
vn 0.5291 0.0000 -0.8485
vn -0.4281 0.0000 -0.9037
vn 0.9871 0.0000 0.1601
vn -0.3842 0.0000 -0.9233
vn 0.4205 0.0000 -0.9073
vn -0.3392 0.0000 -0.9407
vn -0.2931 0.0000 -0.9561
vn 0.3056 0.0000 -0.9522
vn -0.2455 0.0000 -0.9694
vn -0.8383 0.0000 0.5452
vn 0.1856 0.0000 -0.9826
vn -0.1961 0.0000 -0.9806
vn -0.1443 0.0000 -0.9895
vn 0.0621 0.0000 -0.9981
vn -0.0895 0.0000 -0.9960
vn -0.0311 0.0000 -0.9995
vn -0.7616 0.0000 0.6480
vn 0.9673 0.0000 0.2538
vn -0.6718 0.0000 0.7408
vn -0.5696 0.0000 0.8219
vn 0.4920 0.0000 0.8706
vn -0.9650 0.0000 -0.2622
vn -0.4562 0.0000 0.8899
vn 0.9410 0.0000 0.3384
vn 0.4483 0.0000 0.8939
vn 0.4060 0.0000 0.9139
vn 0.3649 0.0000 0.9310
vn -0.3331 0.0000 0.9429
vn 0.3245 0.0000 0.9459
vn 0.2843 0.0000 0.9587
vn 0.2441 0.0000 0.9698
vn -0.9377 0.0000 -0.3474
vn -0.2026 0.0000 0.9793
vn 0.2032 0.0000 0.9791
vn 0.1614 0.0000 0.9869
vn 0.1181 0.0000 0.9930
vn -0.0676 0.0000 0.9977
vn 0.0250 0.0000 0.9997
vn 0.0728 0.0000 0.9973
vn -0.9061 0.0000 -0.4230
vn 0.9097 0.0000 0.4152
vn -0.8718 0.0000 -0.4899
vn 0.8741 0.0000 0.4857
vn -0.8356 0.0000 -0.5493
vn -0.7984 0.0000 -0.6021
vn 0.8344 0.0000 0.5512
vn -0.7605 0.0000 -0.6493
vn -0.7222 0.0000 -0.6917
vn 0.7904 0.0000 0.6126
vn -0.6836 0.0000 -0.7299
vn -0.6447 0.0000 -0.7644
vn 0.7417 0.0000 0.6707
vn -0.6055 0.0000 -0.7958
vn -0.5661 0.0000 -0.8244
vn 0.6876 0.0000 0.7261
vn -0.7682 0.0000 0.6402
vn 0.5592 0.0000 0.8290
vn 0.6271 0.0000 0.7789
usemtl None
s off
f 26//1 24//1 25//1
f 27//1 24//1 26//1
f 27//1 23//1 24//1
f 28//1 23//1 27//1
f 28//1 22//1 23//1
f 29//1 22//1 28//1
f 29//1 21//1 22//1
f 30//1 21//1 29//1
f 30//1 20//1 21//1
f 31//1 20//1 30//1
f 31//1 19//1 20//1
f 32//1 19//1 31//1
f 32//1 18//1 19//1
f 33//1 85//1 32//1
f 85//1 86//1 32//1
f 86//1 18//1 32//1
f 87//1 18//1 86//1
f 33//1 84//1 85//1
f 88//1 18//1 87//1
f 88//1 17//1 18//1
f 33//1 83//1 84//1
f 89//1 17//1 88//1
f 33//1 82//1 83//1
f 90//1 17//1 89//1
f 34//1 82//1 33//1
f 34//1 81//1 82//1
f 91//1 17//1 90//1
f 34//1 80//1 81//1
f 92//1 17//1 91//1
f 92//1 16//1 17//1
f 34//1 79//1 80//1
f 35//1 79//1 34//1
f 93//1 16//1 92//1
f 35//1 78//1 79//1
f 94//1 16//1 93//1
f 35//1 77//1 78//1
f 94//1 15//1 16//1
f 36//1 77//1 35//1
f 95//1 15//1 94//1
f 36//1 76//1 77//1
f 96//1 15//1 95//1
f 36//1 75//1 76//1
f 37//1 75//1 36//1
f 96//1 14//1 15//1
f 97//1 14//1 96//1
f 37//1 74//1 75//1
f 98//1 14//1 97//1
f 37//1 133//1 74//1
f 38//1 133//1 37//1
f 98//1 13//1 14//1
f 38//1 132//1 133//1
f 99//1 13//1 98//1
f 100//1 13//1 99//1
f 101//1 13//1 100//1
f 102//1 13//1 101//1
f 39//1 132//1 38//1
f 39//1 131//1 132//1
f 103//1 13//1 102//1
f 104//1 13//1 103//1
f 105//1 13//1 104//1
f 39//1 130//1 131//1
f 106//1 13//1 105//1
f 106//1 12//1 13//1
f 107//1 12//1 106//1
f 108//1 12//1 107//1
f 39//1 129//1 130//1
f 40//1 129//1 39//1
f 109//1 12//1 108//1
f 110//1 12//1 109//1
f 40//1 128//1 129//1
f 111//1 12//1 110//1
f 40//1 127//1 128//1
f 112//1 12//1 111//1
f 41//1 127//1 40//1
f 113//1 12//1 112//1
f 41//1 126//1 127//1
f 114//1 12//1 113//1
f 114//1 11//1 12//1
f 115//1 11//1 114//1
f 41//1 125//1 126//1
f 116//1 11//1 115//1
f 117//1 11//1 116//1
f 41//1 124//1 125//1
f 118//1 11//1 117//1
f 42//1 124//1 41//1
f 42//1 123//1 124//1
f 119//1 11//1 118//1
f 120//1 11//1 119//1
f 42//1 122//1 123//1
f 121//1 11//1 120//1
f 122//1 11//1 121//1
f 42//1 11//1 122//1
f 43//1 11//1 42//1
f 43//1 10//1 11//1
f 44//1 10//1 43//1
f 45//1 61//1 44//1
f 61//1 10//1 44//1
f 45//1 60//1 61//1
f 62//1 10//1 61//1
f 46//1 60//1 45//1
f 62//1 9//1 10//1
f 46//1 59//1 60//1
f 46//1 58//1 59//1
f 46//1 57//1 58//1
f 47//1 57//1 46//1
f 47//1 56//1 57//1
f 47//1 55//1 56//1
f 47//1 54//1 55//1
f 63//1 9//1 62//1
f 48//1 54//1 47//1
f 48//1 53//1 54//1
f 48//1 52//1 53//1
f 48//1 51//1 52//1
f 49//1 51//1 48//1
f 49//1 50//1 51//1
f 64//1 9//1 63//1
f 64//1 8//1 9//1
f 65//1 8//1 64//1
f 65//1 7//1 8//1
f 66//1 7//1 65//1
f 67//1 7//1 66//1
f 67//1 6//1 7//1
f 68//1 6//1 67//1
f 69//1 6//1 68//1
f 69//1 5//1 6//1
f 70//1 5//1 69//1
f 71//1 5//1 70//1
f 71//1 4//1 5//1
f 72//1 4//1 71//1
f 73//1 4//1 72//1
f 73//1 3//1 4//1
f 1//1 3//1 73//1
f 1//1 2//1 3//1
f 159//2 158//2 157//2
f 160//2 159//2 157//2
f 160//3 157//3 156//3
f 161//4 160//4 156//4
f 161//5 156//5 155//5
f 162//2 161//2 155//2
f 162//2 155//2 154//2
f 163//2 162//2 154//2
f 163//4 154//4 153//4
f 164//2 163//2 153//2
f 164//6 153//6 152//6
f 165//2 164//2 152//2
f 165//2 152//2 151//2
f 166//2 165//2 218//2
f 218//2 165//2 219//2
f 219//2 165//2 151//2
f 220//2 219//2 151//2
f 166//2 218//2 217//2
f 221//7 220//7 151//7
f 221//2 151//2 150//2
f 166//2 217//2 216//2
f 222//8 221//8 150//8
f 166//2 216//2 215//2
f 223//2 222//2 150//2
f 167//4 166//4 215//4
f 167//2 215//2 214//2
f 224//2 223//2 150//2
f 167//2 214//2 213//2
f 225//2 224//2 150//2
f 225//2 150//2 149//2
f 167//2 213//2 212//2
f 168//6 167//6 212//6
f 226//3 225//3 149//3
f 168//3 212//3 211//3
f 227//9 226//9 149//9
f 168//9 211//9 210//9
f 227//2 149//2 148//2
f 169//2 168//2 210//2
f 228//2 227//2 148//2
f 169//2 210//2 209//2
f 229//2 228//2 148//2
f 169//10 209//10 208//10
f 170//2 169//2 208//2
f 229//2 148//2 147//2
f 230//2 229//2 147//2
f 170//2 208//2 207//2
f 231//10 230//10 147//10
f 170//9 207//9 266//9
f 171//2 170//2 266//2
f 231//2 147//2 146//2
f 171//2 266//2 265//2
f 232//11 231//11 146//11
f 233//2 232//2 146//2
f 234//2 233//2 146//2
f 235//2 234//2 146//2
f 172//2 171//2 265//2
f 172//2 265//2 264//2
f 236//2 235//2 146//2
f 237//2 236//2 146//2
f 238//2 237//2 146//2
f 172//2 264//2 263//2
f 239//2 238//2 146//2
f 239//4 146//4 145//4
f 240//2 239//2 145//2
f 241//2 240//2 145//2
f 172//2 263//2 262//2
f 173//2 172//2 262//2
f 242//2 241//2 145//2
f 243//12 242//12 145//12
f 173//10 262//10 261//10
f 244//13 243//13 145//13
f 173//5 261//5 260//5
f 245//2 244//2 145//2
f 174//2 173//2 260//2
f 246//2 245//2 145//2
f 174//3 260//3 259//3
f 247//2 246//2 145//2
f 247//6 145//6 144//6
f 248//14 247//14 144//14
f 174//15 259//15 258//15
f 249//16 248//16 144//16
f 250//2 249//2 144//2
f 174//2 258//2 257//2
f 251//2 250//2 144//2
f 175//4 174//4 257//4
f 175//4 257//4 256//4
f 252//2 251//2 144//2
f 253//2 252//2 144//2
f 175//4 256//4 255//4
f 254//2 253//2 144//2
f 255//2 254//2 144//2
f 175//4 255//4 144//4
f 176//6 175//6 144//6
f 176//4 144//4 143//4
f 177//2 176//2 143//2
f 178//2 177//2 194//2
f 194//17 177//17 143//17
f 178//2 194//2 193//2
f 195//2 194//2 143//2
f 179//2 178//2 193//2
f 195//6 143//6 142//6
f 179//2 193//2 192//2
f 179//2 192//2 191//2
f 179//2 191//2 190//2
f 180//2 179//2 190//2
f 180//2 190//2 189//2
f 180//2 189//2 188//2
f 180//2 188//2 187//2
f 196//2 195//2 142//2
f 181//2 180//2 187//2
f 181//18 187//18 186//18
f 181//19 186//19 185//19
f 181//2 185//2 184//2
f 182//2 181//2 184//2
f 182//20 184//20 183//20
f 197//2 196//2 142//2
f 197//2 142//2 141//2
f 198//2 197//2 141//2
f 198//2 141//2 140//2
f 199//2 198//2 140//2
f 200//2 199//2 140//2
f 200//2 140//2 139//2
f 201//2 200//2 139//2
f 202//2 201//2 139//2
f 202//2 139//2 138//2
f 203//2 202//2 138//2
f 204//2 203//2 138//2
f 204//2 138//2 137//2
f 205//2 204//2 137//2
f 206//2 205//2 137//2
f 206//2 137//2 136//2
f 134//2 206//2 136//2
f 134//2 136//2 135//2
f 26//21 25//21 158//21 159//21
f 25//22 24//22 157//22 158//22
f 27//23 26//23 159//23 160//23
f 24//24 23//24 156//24 157//24
f 28//25 27//25 160//25 161//25
f 23//26 22//26 155//26 156//26
f 29//27 28//27 161//27 162//27
f 22//28 21//28 154//28 155//28
f 30//29 29//29 162//29 163//29
f 21//30 20//30 153//30 154//30
f 31//31 30//31 163//31 164//31
f 20//32 19//32 152//32 153//32
f 32//33 31//33 164//33 165//33
f 19//34 18//34 151//34 152//34
f 33//35 32//35 165//35 166//35
f 86//36 85//36 218//36 219//36
f 87//37 86//37 219//37 220//37
f 85//38 84//38 217//38 218//38
f 88//39 87//39 220//39 221//39
f 18//40 17//40 150//40 151//40
f 84//41 83//41 216//41 217//41
f 89//42 88//42 221//42 222//42
f 83//43 82//43 215//43 216//43
f 90//44 89//44 222//44 223//44
f 34//45 33//45 166//45 167//45
f 82//46 81//46 214//46 215//46
f 91//47 90//47 223//47 224//47
f 81//48 80//48 213//48 214//48
f 92//49 91//49 224//49 225//49
f 17//50 16//50 149//50 150//50
f 80//51 79//51 212//51 213//51
f 35//52 34//52 167//52 168//52
f 93//53 92//53 225//53 226//53
f 79//54 78//54 211//54 212//54
f 94//55 93//55 226//55 227//55
f 78//56 77//56 210//56 211//56
f 16//57 15//57 148//57 149//57
f 36//58 35//58 168//58 169//58
f 95//59 94//59 227//59 228//59
f 77//60 76//60 209//60 210//60
f 96//61 95//61 228//61 229//61
f 76//62 75//62 208//62 209//62
f 37//63 36//63 169//63 170//63
f 15//64 14//64 147//64 148//64
f 97//65 96//65 229//65 230//65
f 75//66 74//66 207//66 208//66
f 98//67 97//67 230//67 231//67
f 74//68 133//68 266//68 207//68
f 38//69 37//69 170//69 171//69
f 14//70 13//70 146//70 147//70
f 133//71 132//71 265//71 266//71
f 99//72 98//72 231//72 232//72
f 100//73 99//73 232//73 233//73
f 101//74 100//74 233//74 234//74
f 102//75 101//75 234//75 235//75
f 39//76 38//76 171//76 172//76
f 132//77 131//77 264//77 265//77
f 103//78 102//78 235//78 236//78
f 104//79 103//79 236//79 237//79
f 105//80 104//80 237//80 238//80
f 131//81 130//81 263//81 264//81
f 106//82 105//82 238//82 239//82
f 13//83 12//83 145//83 146//83
f 107//84 106//84 239//84 240//84
f 108//85 107//85 240//85 241//85
f 130//86 129//86 262//86 263//86
f 40//87 39//87 172//87 173//87
f 109//88 108//88 241//88 242//88
f 110//89 109//89 242//89 243//89
f 129//90 128//90 261//90 262//90
f 111//91 110//91 243//91 244//91
f 128//92 127//92 260//92 261//92
f 112//93 111//93 244//93 245//93
f 41//94 40//94 173//94 174//94
f 113//95 112//95 245//95 246//95
f 127//96 126//96 259//96 260//96
f 114//97 113//97 246//97 247//97
f 12//98 11//98 144//98 145//98
f 115//99 114//99 247//99 248//99
f 126//100 125//100 258//100 259//100
f 116//101 115//101 248//101 249//101
f 117//102 116//102 249//102 250//102
f 125//103 124//103 257//103 258//103
f 118//104 117//104 250//104 251//104
f 42//105 41//105 174//105 175//105
f 124//106 123//106 256//106 257//106
f 119//107 118//107 251//107 252//107
f 120//108 119//108 252//108 253//108
f 123//109 122//109 255//109 256//109
f 121//110 120//110 253//110 254//110
f 122//111 121//111 254//111 255//111
f 43//112 42//112 175//112 176//112
f 11//113 10//113 143//113 144//113
f 44//114 43//114 176//114 177//114
f 45//115 44//115 177//115 178//115
f 61//116 60//116 193//116 194//116
f 62//117 61//117 194//117 195//117
f 46//118 45//118 178//118 179//118
f 10//119 9//119 142//119 143//119
f 60//120 59//120 192//120 193//120
f 59//121 58//121 191//121 192//121
f 58//122 57//122 190//122 191//122
f 47//123 46//123 179//123 180//123
f 57//124 56//124 189//124 190//124
f 56//125 55//125 188//125 189//125
f 55//126 54//126 187//126 188//126
f 63//127 62//127 195//127 196//127
f 48//128 47//128 180//128 181//128
f 54//129 53//129 186//129 187//129
f 53//130 52//130 185//130 186//130
f 52//131 51//131 184//131 185//131
f 49//132 48//132 181//132 182//132
f 50//133 49//133 182//133 183//133
f 51//134 50//134 183//134 184//134
f 64//135 63//135 196//135 197//135
f 9//136 8//136 141//136 142//136
f 65//137 64//137 197//137 198//137
f 8//138 7//138 140//138 141//138
f 66//139 65//139 198//139 199//139
f 67//140 66//140 199//140 200//140
f 7//141 6//141 139//141 140//141
f 68//142 67//142 200//142 201//142
f 69//143 68//143 201//143 202//143
f 6//144 5//144 138//144 139//144
f 70//145 69//145 202//145 203//145
f 71//146 70//146 203//146 204//146
f 5//147 4//147 137//147 138//147
f 72//148 71//148 204//148 205//148
f 73//149 72//149 205//149 206//149
f 4//150 3//150 136//150 137//150
f 1//151 73//151 206//151 134//151
f 2//152 1//152 134//152 135//152
f 3//153 2//153 135//153 136//153
