# Blender v2.80 (sub 75) OBJ File: ''
# www.blender.org
mtllib one.mtl
o Text
v 0.050000 0.000000 -0.682000
v -0.048000 0.000000 -0.682000
v -0.048000 0.000000 0.000000
v 0.050000 0.000000 0.000000
v 0.050000 -0.090000 -0.682000
v -0.048000 -0.090000 -0.682000
v -0.048000 -0.090000 0.000000
v 0.050000 -0.090000 0.000000
vn 0.0000 1.0000 0.0000
vn 0.0000 -1.0000 0.0000
vn -1.0000 0.0000 0.0000
vn 0.0000 0.0000 -1.0000
vn 0.0000 0.0000 1.0000
vn 1.0000 0.0000 0.0000
usemtl None
s off
f 3//1 1//1 2//1
f 3//1 4//1 1//1
f 7//2 6//2 5//2
f 7//2 5//2 8//2
f 3//3 2//3 6//3 7//3
f 2//4 1//4 5//4 6//4
f 4//5 3//5 7//5 8//5
f 1//6 4//6 8//6 5//6
